<svg width="5120" height="5120" viewBox="0 0 5120 5120" fill="none" xmlns="http://www.w3.org/2000/svg">
<path d="M5120 0H0V5120H5120V0Z" fill="white"/>
<path d="M1047.6 2820.01V2308.81H1128.24V2748.73H1402.56V2820.01H1047.6ZM1890.71 2748.73V2820.01H1540.07V2308.81H1884.23V2380.09H1620.71V2525.53H1848.95V2592.49H1620.71V2748.73H1890.71ZM2396.54 2748.73V2820.01H2045.9V2308.81H2390.06V2380.09H2126.54V2525.53H2354.78V2592.49H2126.54V2748.73H2396.54ZM2801.62 2820.01V2308.81H2882.26V2748.73H3156.58V2820.01H2801.62ZM3294.08 2820.01V2308.81H3374.72V2820.01H3294.08ZM3992.1 2820.01V2455.69L3841.62 2732.17H3794.1L3642.9 2455.69V2820.01H3562.26V2308.81H3648.66L3817.86 2621.29L3987.06 2308.81H4073.46V2820.01H3992.1Z" fill="black"/>
</svg>